<svg version="1.1" id="Layer_1" xmlns="http://www.w3.org/2000/svg" xmlns:xlink="http://www.w3.org/1999/xlink" x="0px" y="0px"
	 width="100%" viewBox="0 0 896 1024" enable-background="new 0 0 896 1024" xml:space="preserve">
<path fill="#000000" opacity="1.000000" stroke="none" 
	d="
M897.000000,574.000000 
	C897.000000,724.234375 897.000000,874.468750 897.000000,1025.000000 
	C828.644348,1025.000000 760.288208,1025.000000 691.698059,1024.761841 
	C692.893372,1023.537659 693.625183,1022.066589 694.363892,1020.554565 
	C708.431458,991.762573 728.862854,967.655518 750.925110,944.896301 
	C764.248657,931.151855 778.377197,918.177124 792.397278,905.128662 
	C794.829834,902.864685 797.022644,899.947021 801.144836,898.244751 
	C801.042236,903.355774 799.422974,907.478821 798.532410,911.717163 
	C796.136719,923.119080 794.280029,934.592896 795.371094,946.292358 
	C795.965332,952.664124 798.548035,954.682190 804.767883,954.673645 
	C810.463623,954.665833 815.037720,951.597961 819.262634,948.641663 
	C835.694031,937.144287 849.771362,922.742920 865.447144,910.278503 
	C867.817017,908.394165 870.322571,905.733582 870.893616,902.187927 
	C871.085205,900.998352 871.395813,899.835693 870.128967,899.081055 
	C868.901672,898.349976 867.840271,898.940002 866.974304,899.774963 
	C864.948425,901.728271 862.927185,903.693604 861.016968,905.758484 
	C852.264893,915.219360 842.224426,923.038391 830.750122,928.866821 
	C823.521301,932.538757 816.776123,928.613281 815.410156,920.576599 
	C813.688354,910.446899 815.464661,900.370605 815.499207,890.271423 
	C815.516663,885.161682 817.623840,881.860168 821.421509,878.964355 
	C828.919373,873.247314 836.190002,867.228821 843.750122,861.597534 
	C855.520752,852.829834 867.502014,844.345337 879.292908,835.604492 
	C883.407104,832.554565 887.516846,829.389465 891.084412,825.744385 
	C894.172180,822.589478 892.436035,818.969788 888.031738,818.409485 
	C882.529968,817.709473 877.481079,818.729248 872.922668,822.060669 
	C868.870239,825.022339 865.090393,828.270447 862.024841,832.244263 
	C851.811646,845.483093 839.001160,855.955017 825.862976,866.033020 
	C823.235352,868.048645 821.507080,871.731323 816.823914,871.520691 
	C816.823914,869.535583 816.664734,867.551636 816.852234,865.601074 
	C817.545105,858.394958 816.333557,851.311096 814.485168,844.504272 
	C812.979126,838.958069 810.400269,833.278198 803.375488,832.464233 
	C797.916443,831.831726 789.473267,837.043518 787.069458,842.179993 
	C786.161621,844.119751 785.849365,846.071777 787.219727,847.833496 
	C788.596802,849.603821 790.560974,849.856506 792.655457,849.276123 
	C794.236023,848.838135 795.815247,848.395447 797.466919,847.934753 
	C798.296082,849.045288 799.019775,849.948547 799.661987,850.906372 
	C799.928711,851.304199 800.067627,851.807129 800.186401,852.281799 
	C802.723999,862.426880 802.086792,872.687561 801.301575,882.955444 
	C801.175415,884.604736 800.141724,885.632263 799.035400,886.679871 
	C793.037598,892.359436 786.979980,897.979187 781.095581,903.774597 
	C764.076416,920.536316 747.359619,937.600403 732.066101,955.971008 
	C719.593628,970.952820 706.995728,985.936951 697.339661,1002.930115 
	C693.503418,1009.681213 687.024292,1015.882751 689.000000,1025.000000 
	C459.750031,1025.000000 230.500046,1025.000000 1.000000,1025.000000 
	C1.000000,857.977478 1.000000,690.954773 1.199220,523.652527 
	C2.247211,524.702820 3.172873,525.235352 4.618979,524.020081 
	C8.382068,520.857605 12.367236,521.366394 16.151684,523.829895 
	C21.289688,527.174500 25.971710,525.997253 30.516176,522.786377 
	C32.552429,521.347717 34.302174,519.483337 36.398312,518.153198 
	C45.851856,512.154236 55.308380,506.271240 67.389366,507.904846 
	C72.381477,508.579926 77.190125,507.404022 81.939346,505.334534 
	C94.922379,499.677002 108.151375,494.659515 122.184143,492.119751 
	C126.467499,491.344513 130.552994,489.870270 134.328659,487.664368 
	C141.225357,483.635162 148.300842,479.864929 154.910614,475.406769 
	C160.057739,471.935059 165.007675,471.312958 170.342682,474.174896 
	C174.671738,476.497162 178.008957,475.305908 180.878357,471.777557 
	C183.923889,468.032684 186.667786,464.005157 190.000061,460.540222 
	C194.257950,456.112915 195.812119,451.098846 195.375885,445.086182 
	C195.022766,440.218811 195.612244,435.665375 199.477158,431.758881 
	C202.454697,428.749298 202.737900,425.270020 200.020157,420.995697 
	C195.612518,414.063568 189.017334,408.897339 185.193130,401.615143 
	C179.918869,391.571655 175.250916,381.215393 171.957184,370.381500 
	C170.044006,364.088562 166.271515,357.939423 167.322784,351.163239 
	C168.335068,344.638214 170.089630,338.184540 172.966095,332.072754 
	C179.299240,318.616364 186.352234,305.777527 188.114960,290.203003 
	C190.364578,270.326630 190.163513,251.043900 184.643448,231.903061 
	C181.832901,222.157516 181.333572,212.391449 181.564529,202.299774 
	C181.841156,190.213745 181.121490,178.099792 179.047623,166.077591 
	C176.085724,148.907669 170.246399,132.290817 170.416550,114.477310 
	C170.503265,105.399277 170.731720,96.155830 169.096832,87.075783 
	C168.676331,84.740440 168.938904,82.129997 170.682266,80.465759 
	C175.993881,75.395210 178.349472,68.431114 182.542038,62.649330 
	C191.330811,50.529053 200.139374,38.469189 205.965958,24.435123 
	C209.599686,15.682842 208.112259,8.288193 203.000000,1.000000 
	C265.689301,1.000000 328.378632,1.000000 391.649231,1.456183 
	C392.274414,5.076381 392.359985,8.240477 392.353790,11.404394 
	C392.340118,18.389244 392.321259,18.408792 385.114807,18.408712 
	C337.793365,18.408194 290.471924,18.397455 243.150497,18.392962 
	C235.658997,18.392250 235.381851,18.641098 235.381622,25.799387 
	C235.376480,189.425018 235.375656,353.050629 235.379990,516.676270 
	C235.380157,523.434204 235.564392,523.611023 242.497406,523.612366 
	C289.152374,523.621216 335.807373,523.592529 382.462280,523.640869 
	C393.429535,523.652283 392.265472,522.368652 392.365295,533.533203 
	C392.427094,540.445862 392.545532,540.625488 399.333588,540.627563 
	C433.824951,540.638062 468.316284,540.637756 502.807648,540.636719 
	C512.580383,540.636475 512.580383,540.629333 512.627808,530.904602 
	C512.663208,523.649536 512.663208,523.628601 520.167419,523.627930 
	C567.488892,523.623840 614.810364,523.630554 662.131836,523.631592 
	C669.625671,523.631775 669.635864,523.626892 669.635925,516.128479 
	C669.636841,352.836090 669.635559,189.543716 669.633301,26.251337 
	C669.633179,18.355160 669.627258,18.357285 661.473755,18.360540 
	C616.984924,18.378311 572.496155,18.402197 528.007324,18.408293 
	C511.005859,18.410622 511.005859,18.391655 513.000000,1.000000 
	C573.355957,1.000000 633.711914,1.000000 694.219299,1.152733 
	C687.413391,4.123411 682.123169,12.483544 684.597351,18.841776 
	C687.318237,25.833973 688.006775,33.505234 691.802063,40.046150 
	C696.064819,47.392582 698.947327,55.013992 698.124634,63.683998 
	C698.063049,64.332848 698.204285,65.018112 698.344299,65.666344 
	C700.305908,74.747078 698.760376,83.019287 693.691895,90.960815 
	C688.562378,98.997841 687.512207,108.029961 689.144653,117.423615 
	C690.227966,123.657532 691.123718,129.926987 691.962402,136.199402 
	C692.474548,140.029587 693.005310,143.901199 695.071594,147.181366 
	C700.869995,156.386047 702.303650,167.638763 708.950562,176.438644 
	C709.597229,177.294769 709.942810,178.675720 709.838440,179.756073 
	C708.722229,191.304001 709.143616,203.173477 703.641846,213.888733 
	C699.125854,222.684021 696.860168,231.949936 697.152466,241.810501 
	C697.312012,247.190552 696.597656,252.389648 695.252258,257.610077 
	C693.758972,263.404541 692.355591,269.385101 694.386108,275.333771 
	C697.344482,284.000916 700.230042,292.720337 704.517395,300.856567 
	C710.699097,312.587616 715.261230,324.856262 717.400696,337.987091 
	C717.937012,341.278839 718.772278,344.508057 720.421448,347.466766 
	C724.161682,354.177032 728.408203,355.578766 735.347900,352.315155 
	C738.675293,350.750336 741.733215,348.823792 744.479675,346.296112 
	C749.242554,341.912598 753.052185,341.863586 758.291077,345.847351 
	C760.552490,347.566986 762.836731,349.166626 765.466980,350.326111 
	C775.207031,354.619659 781.587646,363.622131 790.858643,368.610229 
	C791.516846,368.964386 791.963501,369.865173 792.320312,370.602814 
	C797.448853,381.205536 799.561890,392.282318 797.772339,404.043823 
	C795.021240,422.125305 792.566223,440.141052 793.867981,458.627472 
	C794.829285,472.278473 801.785034,482.044495 810.769165,490.898621 
	C818.045593,498.069672 825.329590,505.072296 829.332703,514.727478 
	C830.975342,518.689270 833.799133,521.788147 837.070190,524.389282 
	C843.286743,529.332825 847.941711,535.608521 852.572205,541.919312 
	C854.054565,543.939636 855.422729,546.047058 857.473267,547.543091 
	C864.830261,552.910522 871.027161,559.318665 875.576721,567.272400 
	C877.361389,570.392456 880.059265,571.803528 883.791565,571.999695 
	C888.224304,572.232666 892.793518,572.074646 897.000000,574.000000 
M694.976318,767.416626 
	C691.298218,773.316895 687.567444,779.185181 683.952942,785.124146 
	C676.224487,797.822815 668.541748,810.549438 660.876038,823.286133 
	C659.423645,825.699402 657.658142,827.207275 654.627563,827.546204 
	C648.543640,828.226746 642.511414,829.359924 636.450256,830.254395 
	C625.134033,831.924438 613.759705,833.402954 608.697021,846.111755 
	C608.106079,847.595215 606.719971,848.512451 604.693237,848.480530 
	C596.086548,848.344849 587.476501,848.422974 578.917480,848.422974 
	C578.262146,846.431213 579.389221,845.011475 579.997742,843.522644 
	C587.349548,825.536987 596.155640,808.229370 604.780151,790.843811 
	C612.668762,774.941772 620.890747,759.205139 628.810120,743.317993 
	C629.926392,741.078552 633.067444,738.152161 629.543274,735.951721 
	C626.230530,733.883301 623.291382,736.773254 620.622803,738.676025 
	C619.867554,739.214539 619.507385,740.299622 618.948669,741.122192 
	C610.575500,753.449219 603.606628,766.590332 596.441406,779.627930 
	C585.497681,799.540833 574.453308,819.401367 563.146667,839.109192 
	C561.059021,842.747986 559.453979,847.349854 553.985413,848.099792 
	C547.086426,849.045837 540.261475,850.486084 533.362610,851.524841 
	C522.858459,853.106384 512.421631,855.210754 502.035828,857.460815 
	C498.554230,858.215149 493.876129,859.809204 494.799438,864.178284 
	C495.684906,868.368164 500.454559,866.896606 503.440796,866.324280 
	C511.314911,864.815125 519.290649,864.262024 527.221313,863.845154 
	C533.038940,863.539307 539.062622,861.705078 544.986816,864.385742 
	C545.807434,866.833984 544.410706,868.771851 543.473389,870.876648 
	C541.386658,875.562317 539.213257,880.230225 537.493286,885.054443 
	C532.485535,899.100403 526.402832,912.721863 520.869507,926.549927 
	C516.881287,936.516479 513.377075,946.701172 508.743225,956.463806 
	C504.079590,966.289246 500.749939,976.755981 496.993317,986.999512 
	C495.617462,990.751221 492.653625,996.010132 497.415405,998.028320 
	C501.715271,999.850708 504.254089,994.678162 506.084229,990.889160 
	C515.323792,971.760254 524.963013,952.831665 533.881287,933.538147 
	C543.479797,912.772888 553.992371,892.437073 564.382141,872.046814 
	C568.548218,863.870850 573.581238,860.070618 583.124146,860.414795 
	C598.664001,860.975281 613.802979,857.568176 628.658630,852.982483 
	C633.962036,851.345398 639.459961,850.338196 644.833252,849.052063 
	C645.830933,851.498413 644.472656,852.811218 643.781250,854.221619 
	C641.375244,859.129333 638.700867,863.909607 636.405579,868.866699 
	C625.199036,893.069275 613.242920,916.955750 604.756653,942.326111 
	C601.443054,952.231995 598.132324,962.156372 599.372314,972.901672 
	C600.161987,979.745117 604.650757,984.202026 611.452576,984.589417 
	C619.550232,985.050537 635.735046,975.541321 639.193176,968.278809 
	C639.763489,967.081177 640.503906,965.841553 639.523010,964.539429 
	C638.605469,963.321411 637.228516,963.224609 635.885742,963.460693 
	C633.599548,963.862549 631.327026,964.355042 629.064880,964.878784 
	C622.252380,966.456055 619.369690,964.756653 618.092468,957.892639 
	C616.609253,949.921997 618.933228,942.239807 621.320557,934.907471 
	C626.985229,917.509705 636.001221,901.540588 644.207214,885.275208 
	C649.852783,874.084900 656.416626,863.328552 663.073242,852.693237 
	C665.528748,848.770020 666.595215,843.037964 671.560242,841.564575 
	C689.962585,836.103394 708.238098,829.529968 728.071655,832.885437 
	C731.555115,833.474792 735.003601,832.410889 736.772400,828.504517 
	C738.229065,825.287781 737.566162,822.457031 735.197266,820.304688 
	C732.257324,817.633423 728.945068,818.885010 725.909607,820.489929 
	C724.448547,821.262634 723.163086,822.181458 721.384827,822.358093 
	C708.164062,823.671265 694.908081,823.254639 681.342712,823.529785 
	C681.537048,822.656006 681.522034,821.965393 681.825500,821.469971 
	C689.428101,809.061096 696.806824,796.504822 704.755005,784.320312 
	C716.610474,766.145874 728.878235,748.240540 740.957642,730.211975 
	C748.903442,718.352722 757.670349,707.157837 768.486389,697.777649 
	C772.501831,694.295288 777.219055,691.482788 782.976929,693.338013 
	C788.622192,695.156982 790.340942,699.944519 791.459412,705.174805 
	C793.020508,712.474854 792.494568,719.687012 790.985413,726.903564 
	C790.197266,730.672058 789.503418,734.460144 791.598877,738.070007 
	C792.211121,739.124695 793.075500,739.992065 794.402405,739.766785 
	C795.714050,739.544067 796.322876,738.487549 796.505859,737.267883 
	C796.800903,735.301270 796.938110,733.310791 797.238464,731.345154 
	C798.945984,720.171448 800.779602,708.996094 798.915649,697.658325 
	C797.688538,690.194031 795.986267,682.543884 789.632141,677.858826 
	C780.071838,670.809814 769.573425,672.145386 760.534180,680.212952 
	C745.831909,693.334656 734.637085,709.381531 723.252319,725.197815 
	C713.503845,738.740845 704.634521,752.916687 694.976318,767.416626 
M159.825531,640.889893 
	C157.206787,640.480347 154.589966,640.057922 151.968933,639.663696 
	C142.464844,638.233887 132.997467,636.036011 123.445633,635.567383 
	C108.230537,634.820984 92.961182,633.573425 77.710411,635.383545 
	C61.992245,637.249146 47.006363,641.355408 34.148155,650.966492 
	C18.986164,662.299561 13.901967,678.664307 12.344174,696.625305 
	C10.238772,720.900024 18.223812,742.548950 30.619307,762.630127 
	C40.789906,779.106873 53.546471,793.443359 71.286957,802.434204 
	C77.543816,805.605103 84.002968,808.450928 91.090172,808.442932 
	C94.444504,808.439148 99.866005,808.441406 99.681442,803.839294 
	C99.507584,799.504333 94.399696,800.193298 91.063072,800.357178 
	C82.950027,800.755676 76.676666,797.192139 71.169449,791.778687 
	C59.735035,780.538940 51.513058,767.109497 45.534920,752.393738 
	C41.482803,742.419128 38.173874,732.038452 39.413109,720.990540 
	C41.002663,706.819519 46.808712,694.250305 55.550983,683.194153 
	C65.652489,670.419006 78.912064,662.379150 94.825531,658.531067 
	C109.178436,655.060425 123.629211,654.034607 138.268051,655.674011 
	C147.165955,656.670410 156.131195,657.414917 164.903870,659.111694 
	C186.733170,663.334106 207.914764,670.089539 229.157913,676.531799 
	C250.895477,683.124023 272.476196,690.223389 294.174408,696.949951 
	C310.813202,702.107910 327.403320,707.337280 344.369598,711.306763 
	C362.079742,715.450256 379.886963,717.769104 398.164856,715.701721 
	C410.777649,714.275208 421.573792,710.064331 429.561646,699.726440 
	C434.151947,693.785645 436.144714,681.669434 429.262207,677.146484 
	C427.135559,675.748840 425.818756,672.644592 422.601257,674.048828 
	C419.646912,675.338196 420.429871,678.243652 420.378235,680.656311 
	C420.188782,689.506714 413.649353,698.422546 405.310791,700.885376 
	C391.499603,704.964783 377.549316,703.648987 363.892761,700.665527 
	C353.083588,698.304199 342.589630,694.454651 332.012451,691.087646 
	C316.860199,686.264221 301.757629,681.284485 286.637604,676.359863 
	C273.538666,672.093506 260.607758,667.188721 247.303833,663.707886 
	C233.657257,660.137390 220.230469,655.866028 206.640335,652.137085 
	C191.425140,647.962280 176.092972,644.323669 159.825531,640.889893 
M125.366661,866.767944 
	C132.601013,862.619629 139.835373,858.471375 147.069733,854.323120 
	C147.353821,854.763916 147.637894,855.204712 147.921982,855.645508 
	C147.302292,856.788940 146.738678,857.967102 146.054382,859.070435 
	C138.019424,872.025513 129.677444,884.909973 123.528091,898.813599 
	C114.755844,918.647583 106.459541,938.759399 102.009506,960.183289 
	C98.806473,975.603760 100.634323,988.034973 114.706505,995.287598 
	C120.219543,998.128906 126.049530,1000.940186 132.119003,996.879272 
	C135.692978,994.488037 137.687439,990.856384 137.623383,986.351135 
	C137.581268,983.390015 135.366821,982.311584 133.123322,981.714355 
	C123.526115,979.159546 120.816566,973.101013 120.606682,964.567322 
	C120.348633,954.075195 123.706291,944.390564 126.522881,934.480652 
	C131.210175,917.988892 137.086197,901.920349 145.451111,887.073303 
	C152.762299,874.096497 161.493896,861.880615 170.162689,849.692932 
	C172.789322,846.000122 175.667908,843.336121 179.766830,841.622681 
	C192.168030,836.438477 204.885147,832.192566 217.875900,828.806335 
	C229.765991,825.706970 241.796722,823.467651 254.105148,822.483704 
	C262.013184,821.851440 270.089722,822.040771 277.789459,819.713989 
	C280.251373,818.969910 283.444183,817.907898 283.213043,814.697632 
	C282.963562,811.232544 279.894623,809.774658 276.769562,809.504883 
	C271.652496,809.063354 266.497284,808.805359 261.363007,808.867615 
	C242.849045,809.091980 224.690018,812.231934 206.578171,815.757690 
	C201.294235,816.786316 196.160522,818.921021 190.634277,818.489502 
	C190.287033,816.680664 191.378723,815.699463 192.102173,814.661377 
	C201.211563,801.589905 211.632050,789.542053 221.885330,777.397766 
	C234.700134,762.219543 248.463333,747.883850 263.138702,734.456177 
	C266.335205,731.531433 266.516205,728.288879 263.238983,725.531677 
	C255.928238,719.381226 243.421951,716.753784 234.479248,722.827209 
	C228.367584,726.977966 224.998672,733.425171 221.284531,739.471313 
	C214.009796,751.313843 207.250671,763.476074 199.866470,775.247742 
	C189.474365,791.814453 178.698868,808.140442 168.111404,824.584961 
	C166.619385,826.902344 164.623062,828.215759 162.028839,829.329102 
	C147.078125,835.745605 131.356796,840.040833 116.361038,846.379761 
	C103.997101,851.606262 99.504860,861.671021 97.367752,873.522522 
	C96.469704,878.502747 98.769234,880.010620 103.420265,877.822571 
	C110.612137,874.439331 117.661682,870.753540 125.366661,866.767944 
M343.114716,850.332275 
	C334.491760,846.060608 325.228363,847.695068 316.166107,847.341553 
	C310.177612,847.107971 304.908112,849.474670 300.432037,852.693665 
	C279.655548,867.635559 261.696930,885.283997 249.545090,908.199585 
	C244.139221,918.393799 240.469589,929.126953 239.571976,940.674927 
	C238.987122,948.199036 243.713486,955.429321 251.025101,957.486267 
	C258.676849,959.638916 266.449371,959.139282 274.148193,957.034363 
	C283.768555,954.404236 292.712616,950.700928 301.198578,945.130676 
	C322.459015,931.175293 340.093658,914.197144 350.657776,890.691467 
	C352.029541,887.639038 353.983276,886.545837 357.216309,886.579041 
	C363.742279,886.645935 370.050873,885.061035 376.283356,883.323975 
	C379.249969,882.497070 381.402649,880.555237 382.156311,877.213684 
	C373.015411,873.764404 364.137878,880.146973 355.142212,877.691895 
	C356.394592,866.255188 355.400177,856.182068 343.114716,850.332275 
M479.631134,863.842041 
	C477.648132,856.014160 472.367889,851.547058 464.925201,849.092834 
	C457.449707,846.627747 449.771027,847.581787 442.151398,847.356079 
	C435.549988,847.160522 430.043793,849.683350 424.635071,853.263550 
	C412.100952,861.560303 401.715027,872.140625 391.841370,883.275085 
	C378.542450,898.272095 368.812042,915.325134 364.765717,935.054138 
	C362.224457,947.444885 368.362427,958.614319 384.048157,958.779358 
	C397.392853,958.919739 409.314697,954.871948 420.451874,948.432556 
	C444.606262,934.466797 464.018921,915.780518 475.894409,890.048218 
	C476.875977,887.921265 478.357483,886.815857 480.876892,886.603882 
	C486.329315,886.145264 491.769318,885.433105 497.177673,884.589233 
	C501.697662,883.883911 505.680450,882.156860 507.664795,877.595093 
	C506.168365,875.798584 504.374878,876.530090 502.798798,876.360718 
	C496.570770,875.691772 490.620575,877.753296 484.511475,878.301758 
	C480.228729,878.686218 478.961456,876.534729 479.935181,872.977722 
	C480.732117,870.066345 480.353790,867.406677 479.631134,863.842041 
M697.444458,930.797424 
	C694.880615,936.910339 692.664795,943.113647 691.170593,949.610291 
	C689.880371,955.220154 693.376282,958.302429 696.624390,961.586487 
	C699.430603,964.423767 702.485779,963.533630 705.818665,962.191162 
	C710.178162,960.435059 714.056763,958.002075 717.889587,955.373962 
	C722.049927,952.521301 723.199951,948.259155 723.246582,943.704834 
	C723.307312,937.772156 722.549805,931.823181 722.749695,925.901672 
	C723.184387,913.025513 728.718872,901.509277 733.344360,889.845154 
	C737.247986,880.001587 742.389099,870.672363 746.179871,860.746277 
	C747.327942,857.739990 746.251221,856.454407 743.697571,855.433533 
	C737.089233,852.791870 730.620178,855.650574 728.954895,862.701965 
	C726.524963,872.991089 721.532715,882.169189 716.987854,891.488770 
	C710.686523,904.409973 703.347717,916.822754 697.444458,930.797424 
M781.692017,795.154968 
	C776.237305,801.515381 769.497925,806.246704 762.530640,810.800354 
	C756.320740,814.859070 749.938171,818.868835 745.735474,825.311279 
	C744.652344,826.971558 743.177673,828.663025 744.139648,830.778015 
	C745.151062,833.001648 747.312195,833.553284 749.585571,833.586487 
	C754.685791,833.661011 759.839722,832.862000 763.781494,829.751953 
	C774.742859,821.103516 782.673218,810.027100 787.746826,796.997253 
	C788.564880,794.896484 791.448853,792.074219 788.412598,790.430542 
	C785.110474,788.643127 783.937256,792.671021 781.692017,795.154968 
M209.507996,467.713318 
	C214.406128,468.372375 215.908585,466.085205 215.728943,461.384033 
	C215.431442,453.598419 215.539383,445.792389 215.654083,437.997589 
	C215.737335,432.339813 211.640961,433.464752 208.336609,433.200195 
	C204.758820,432.913696 203.222549,434.482971 203.288544,438.149994 
	C203.434723,446.275818 203.459320,454.408081 203.302887,462.533295 
	C203.227661,466.439240 204.851730,468.061676 209.507996,467.713318 
M701.638428,439.749847 
	C701.467285,433.637238 701.090515,433.518829 695.065918,433.292236 
	C690.174377,433.108246 689.208618,435.513885 689.319275,439.720154 
	C689.520081,447.348999 689.526550,454.990997 689.319641,462.619507 
	C689.197815,467.112213 691.590759,467.792175 695.278503,467.749878 
	C698.936096,467.707916 701.867126,467.583557 701.695862,462.595337 
	C701.445435,455.301788 701.635864,447.993134 701.638428,439.749847 
M695.491699,504.368591 
	C691.076477,503.840637 689.128967,505.515320 689.301880,510.229919 
	C689.587463,518.022400 689.523987,525.836670 689.322876,533.634460 
	C689.205994,538.163879 691.669922,538.736145 695.325439,538.720032 
	C699.069275,538.703491 701.841309,538.355591 701.697571,533.468384 
	C701.463379,525.506287 701.517151,517.529907 701.683105,509.564423 
	C701.764526,505.657806 700.151489,504.021637 695.491699,504.368591 
M212.002945,538.595947 
	C215.163879,538.448853 215.641083,536.338501 215.631378,533.763733 
	C215.600754,525.636414 215.468277,517.505066 215.675644,509.382874 
	C215.803406,504.378693 212.764404,504.370026 209.159119,504.295380 
	C205.347443,504.216522 203.201614,505.222260 203.328552,509.579132 
	C203.536179,516.705261 203.375381,523.841980 203.378876,530.974243 
	C203.382629,538.610229 203.387100,538.610229 212.002945,538.595947 
z"/>
<path fill="#000000" opacity="1.000000" stroke="none" 
	d="
M733.531372,0.999997 
	C732.348450,1.734579 730.444824,2.158975 729.090454,3.259333 
	C724.138550,7.282444 719.287476,7.504553 714.233826,3.567637 
	C711.503357,1.440523 708.213745,2.298476 705.143494,1.982221 
	C703.346375,1.797106 701.558411,1.524370 699.383179,1.145527 
	C710.354248,1.000000 721.708435,1.000000 733.531372,0.999997 
z"/>
<path fill="#000000" opacity="1.000000" stroke="none" 
	d="
M758.469482,75.580109 
	C755.204041,78.159355 752.060120,78.208656 748.887146,76.331436 
	C740.030273,71.091507 731.126465,65.908646 722.937439,59.642506 
	C715.823669,54.199154 714.548401,47.242443 718.884521,39.382702 
	C720.279480,36.854069 722.238403,35.570538 725.013550,36.450314 
	C732.682190,38.881466 740.467651,38.053825 748.247498,37.531055 
	C752.292175,37.259274 755.971802,38.247559 758.683350,41.245464 
	C763.447327,46.512386 769.940186,49.404953 775.361023,53.771900 
	C777.857239,55.782833 780.198853,57.778412 781.998718,60.385540 
	C785.099304,64.876785 783.469971,68.833740 778.043701,69.814575 
	C776.266541,70.135796 774.386108,70.155914 772.580444,69.998436 
	C767.062256,69.517189 762.430786,71.150192 758.469482,75.580109 
z"/>
<path fill="#000000" opacity="1.000000" stroke="none" 
	d="
M271.999878,263.393066 
	C266.333557,263.377258 261.164673,263.259644 256.001617,263.384705 
	C252.748154,263.463501 251.433762,262.041992 251.634811,258.902100 
	C251.709183,257.740814 251.624344,256.569824 251.624313,255.403259 
	C251.622849,184.572388 251.621170,113.741501 251.624298,42.910625 
	C251.624664,34.629261 251.637268,34.622379 260.114258,34.622055 
	C283.946777,34.621147 307.779266,34.622936 331.611786,34.631306 
	C339.364136,34.634029 339.372009,34.644821 339.373871,42.619053 
	C339.378510,62.618359 339.159912,82.620804 339.450745,102.615875 
	C339.645844,116.030685 339.791870,129.484589 344.953125,142.319183 
	C351.100708,157.606506 361.182343,169.569321 374.615509,178.800842 
	C384.640472,185.690186 395.877502,189.710907 407.861511,191.478592 
	C411.440643,192.006516 415.155426,191.629257 418.808136,191.641373 
	C443.304840,191.722565 467.827332,192.518768 492.290100,191.645142 
	C511.872833,190.945770 528.832764,182.851089 542.677612,168.559021 
	C552.236328,158.691574 559.193787,147.451431 562.674133,134.121323 
	C564.993103,125.239189 565.445984,116.115646 565.545715,107.039085 
	C565.789185,84.875854 565.731140,62.707268 565.541077,40.543007 
	C565.502319,36.021870 566.841248,34.502769 571.460144,34.537418 
	C596.791199,34.727444 622.124878,34.720516 647.456238,34.554134 
	C651.999756,34.524292 653.462524,35.948330 653.454956,40.543636 
	C653.335571,112.874268 653.334656,185.205215 653.456360,257.535828 
	C653.464111,262.142639 652.022400,263.474335 647.469971,263.459015 
	C604.471985,263.314270 561.473328,263.370392 518.474854,263.392670 
	C515.385559,263.394287 512.738159,263.547424 511.824432,259.338348 
	C507.091522,237.537094 494.118195,222.265533 473.366211,214.526001 
	C451.942444,206.535934 431.996857,210.228546 414.079773,224.752731 
	C402.750977,233.936249 395.977844,245.675293 393.110474,259.824005 
	C392.594482,262.369995 391.141571,263.397095 388.556458,263.387146 
	C373.557312,263.329346 358.557831,263.332184 343.558563,263.365204 
	C340.772156,263.371338 339.191711,262.352448 339.033783,259.373169 
	C338.257233,244.722809 338.682953,230.066742 338.767731,215.412491 
	C338.770325,214.967636 339.091736,214.524628 339.535553,213.384384 
	C344.959778,218.568756 350.367249,223.291946 355.215302,228.532623 
	C358.271088,231.835876 360.450287,231.792999 363.410309,228.699707 
	C370.258087,221.543671 370.506256,221.427353 363.614594,214.248611 
	C354.106781,204.344696 344.310852,194.716339 334.583191,185.025238 
	C332.151917,182.603088 329.851959,182.070724 326.976685,185.027451 
	C316.172852,196.137360 305.192322,207.077896 294.147003,217.948776 
	C291.327301,220.723953 291.536713,222.685074 294.290222,225.373901 
	C301.594666,232.506882 301.448181,232.551102 308.602478,225.439056 
	C312.675262,221.390320 316.348358,216.879028 320.977814,213.532791 
	C322.761963,214.769882 322.330688,216.224075 322.334473,217.463760 
	C322.375854,230.963150 322.250702,244.464218 322.433075,257.961304 
	C322.488129,262.037598 321.162109,263.494629 316.996307,263.442291 
	C302.166260,263.255920 287.332245,263.384521 271.999878,263.393066 
M571.205139,192.686356 
	C567.107300,200.920349 565.093384,209.222488 567.758545,218.575867 
	C571.598389,232.052170 580.358948,240.079895 593.487122,243.520523 
	C606.114685,246.829956 616.836670,242.139801 625.561157,233.477890 
	C640.145264,218.998291 637.419434,194.057281 620.592041,182.010406 
	C600.919739,167.926865 578.830688,178.956406 571.205139,192.686356 
M319.543762,131.923004 
	C320.914581,128.488861 321.682617,124.798172 321.325653,121.238365 
	C320.325745,111.267784 315.261108,103.763550 306.043671,99.574852 
	C296.349335,95.169426 287.579437,96.957130 279.227417,103.587723 
	C269.772095,111.094223 268.401794,122.718475 272.051971,132.317001 
	C276.120941,143.016739 288.188080,149.763580 298.710388,148.150040 
	C308.346527,146.672424 314.895721,141.128830 319.543762,131.923004 
z"/>
<path fill="#000000" opacity="1.000000" stroke="none" 
	d="
M653.376831,294.004456 
	C653.376526,362.984650 653.377991,431.465393 653.373169,499.946167 
	C653.372681,507.347107 653.355652,507.368713 646.087708,507.370697 
	C621.427979,507.377502 596.767273,507.251343 572.109375,507.461487 
	C567.129395,507.503937 565.466980,506.065216 565.522095,500.962128 
	C565.763184,478.637695 565.691528,456.308868 565.599060,433.982178 
	C565.532471,417.892822 562.848022,402.468689 554.372559,388.348450 
	C544.370361,371.684723 530.030029,360.367218 511.919342,354.150696 
	C504.496887,351.602936 496.587372,350.072510 488.458435,350.147797 
	C463.973877,350.374664 439.475098,349.821716 415.002930,350.426086 
	C389.656128,351.052032 369.461914,362.423279 354.539520,382.784943 
	C345.207367,395.518677 340.790924,409.821259 340.051941,425.855438 
	C338.893127,450.998901 339.793488,476.116547 339.482697,501.241150 
	C339.424133,505.977264 338.180939,507.528229 333.305450,507.483948 
	C308.147888,507.255493 282.986450,507.266968 257.828278,507.456207 
	C253.064804,507.492035 251.529465,506.053040 251.538040,501.224976 
	C251.665970,429.078796 251.666580,356.932281 251.536469,284.786102 
	C251.527863,280.026062 252.870651,278.477905 257.722260,278.531281 
	C279.047028,278.765808 300.376038,278.684265 321.702942,278.589203 
	C325.074493,278.574158 326.583374,279.486633 328.105957,282.955536 
	C334.819000,298.250092 344.792877,310.856445 359.354279,319.806915 
	C372.993896,328.190826 387.640472,331.656952 403.419922,331.638794 
	C449.073700,331.586212 494.727600,331.634399 540.381348,331.576202 
	C542.863831,331.573029 546.513672,332.789307 547.255615,329.320251 
	C548.137756,325.195679 548.733887,320.674866 546.724121,316.644867 
	C545.823364,314.838745 543.436707,315.398407 541.640259,315.395294 
	C528.643921,315.372711 515.647522,315.410675 502.651276,315.372803 
	C500.521637,315.366608 498.319214,315.771057 495.945648,314.599609 
	C497.284729,310.188293 501.187469,307.530457 503.369415,303.735718 
	C507.123566,297.206604 510.459961,290.551422 511.646454,283.055237 
	C512.160034,279.810211 513.683167,278.590485 516.962402,278.595459 
	C560.783264,278.662109 604.604370,278.667175 648.425232,278.594971 
	C652.032104,278.589020 653.628784,279.794250 653.405823,283.512909 
	C653.206787,286.832245 653.372314,290.173462 653.376831,294.004456 
M293.696075,327.562134 
	C290.250977,324.181885 286.790039,320.817566 283.363892,317.418213 
	C275.035919,309.155457 275.115356,309.217072 267.086609,317.805664 
	C264.904205,320.140228 264.734100,321.739197 267.103729,323.998535 
	C271.921692,328.592194 276.456146,333.482513 281.252350,338.100037 
	C283.433624,340.200012 283.473572,341.809235 281.239441,343.865234 
	C278.178619,346.682007 275.319916,349.718384 272.373260,352.659332 
	C264.303314,360.713715 264.357574,360.662842 272.089447,368.999084 
	C274.621521,371.729095 276.446320,371.630768 279.002563,368.886871 
	C284.158295,363.352539 289.655273,358.136078 294.976044,352.823914 
	C295.707764,353.189331 296.233948,353.315979 296.568848,353.640228 
	C300.275391,357.229065 303.936798,360.864502 307.640137,364.456665 
	C316.957886,373.494629 314.099335,373.627289 323.743866,364.380432 
	C326.294769,361.934723 326.191803,360.126526 323.768524,357.777985 
	C318.986328,353.143341 314.357300,348.350739 309.663269,343.625122 
	C307.752228,341.701202 307.057465,340.172760 309.804352,337.997742 
	C313.176453,335.327637 316.048401,332.017548 319.084259,328.932648 
	C327.557098,320.322815 327.479065,320.386536 318.382507,312.127167 
	C316.086670,310.042603 314.630127,310.216156 312.611572,312.341125 
	C308.254730,316.927551 303.745941,321.372131 299.223022,325.796753 
	C297.885620,327.105103 296.752899,329.225311 293.696075,327.562134 
M623.658081,325.959137 
	C621.264160,324.600861 620.696960,323.118347 622.962158,320.976532 
	C626.227417,317.889221 629.330444,314.629944 632.492798,311.434235 
	C640.861755,302.976929 640.739075,301.949677 631.360535,294.473297 
	C629.315186,292.842743 628.019714,293.042877 626.304932,294.822266 
	C621.485596,299.823212 616.431335,304.600830 611.692444,309.674561 
	C609.962891,311.526306 608.645447,311.389191 607.098389,309.893097 
	C604.010376,306.906738 600.929077,303.909485 597.946777,300.818481 
	C589.134521,291.684906 589.206360,291.713013 580.628662,301.313141 
	C578.913513,303.232727 578.764954,304.280853 580.777466,306.139618 
	C585.739868,310.722870 590.417725,315.613800 595.218811,320.372101 
	C597.103760,322.240204 597.923523,323.707275 595.311707,326.043518 
	C590.157654,330.653748 585.428101,335.737885 580.504944,340.607758 
	C579.332581,341.767426 578.775024,342.866638 579.722778,344.548553 
	C584.919800,353.771484 589.877197,354.275116 597.337097,346.746887 
	C601.248108,342.800018 604.785339,338.352234 610.170105,334.756500 
	C611.145691,337.909058 614.044006,338.642456 615.443787,340.992462 
	C616.904297,343.444305 619.502930,344.778259 621.366455,346.935791 
	C628.560730,355.265137 629.315186,355.017578 636.917175,347.042786 
	C640.080994,343.723755 639.369873,341.705170 636.271790,338.896851 
	C631.991821,335.017212 627.608826,331.167572 623.658081,325.959137 
M597.152527,423.802124 
	C591.414062,425.926270 588.553162,430.631592 585.908325,435.769348 
	C578.963379,449.260132 588.238037,466.977722 602.713684,470.288574 
	C618.684631,473.941376 632.201233,465.243866 634.592285,448.680145 
	C636.026733,438.742645 632.500122,430.147888 623.932922,424.505554 
	C615.610107,419.024048 606.726135,417.835754 597.152527,423.802124 
z"/>
<path fill="#000000" opacity="1.000000" stroke="none" 
	d="
M549.377563,485.000061 
	C549.366760,491.499908 549.300598,497.500427 549.369812,503.499359 
	C549.401062,506.214264 548.339172,507.400665 545.539490,507.375916 
	C535.873840,507.290375 526.206787,507.304565 516.540710,507.357819 
	C513.849670,507.372650 512.474304,506.334503 512.647095,503.534149 
	C512.708496,502.538605 512.635498,501.535095 512.630920,500.535156 
	C512.584717,490.373505 512.585083,490.380768 502.161499,490.385773 
	C495.494965,490.389008 488.827667,490.302765 482.162262,490.384247 
	C479.034393,490.422455 477.584808,489.184692 477.628296,485.965118 
	C477.720642,479.133209 477.700226,472.298828 477.630859,465.466400 
	C477.610382,463.447449 478.436523,462.211487 479.972290,460.895599 
	C494.699585,448.276794 499.091980,432.233826 493.055237,414.214722 
	C483.675232,386.216248 450.875153,376.911346 427.782471,392.881287 
	C411.983368,403.807251 405.619965,424.572693 411.839935,442.249420 
	C414.412445,449.560211 418.396881,456.458496 425.109528,461.060394 
	C426.887390,462.279236 427.390533,463.675049 427.376984,465.632599 
	C427.329651,472.465485 427.253357,479.301025 427.397217,486.131165 
	C427.467743,489.479767 425.939514,490.436188 422.859863,490.402222 
	C414.527863,490.310242 406.191864,490.513763 397.861511,490.367706 
	C393.743805,490.295532 392.319824,491.994781 392.298645,496.042175 
	C392.239227,507.384308 392.114807,507.384766 380.871216,507.375305 
	C374.037964,507.369537 367.202820,507.261871 360.372253,507.393341 
	C357.012482,507.457977 355.583801,506.268555 355.597748,502.764862 
	C355.695435,478.265686 355.241852,453.756134 355.807404,429.269379 
	C356.321014,407.032104 365.339996,388.766785 384.413574,376.409424 
	C394.044159,370.169922 404.598511,366.508331 416.338531,366.581207 
	C439.670776,366.726105 463.009033,366.909393 486.336517,366.544830 
	C513.125977,366.126221 535.122559,382.397339 544.986877,406.070862 
	C548.336182,414.109039 549.317505,423.129547 549.353455,432.000977 
	C549.424377,449.500397 549.376282,467.000366 549.377563,485.000061 
z"/>
<path fill="#000000" opacity="1.000000" stroke="none" 
	d="
M479.749756,80.805626 
	C478.916199,79.941032 477.933716,79.341789 477.922668,78.725174 
	C477.782837,70.902122 477.708130,63.075859 477.784485,55.252052 
	C477.814026,52.228340 480.355194,52.686172 482.257568,52.671169 
	C490.421051,52.606792 498.588928,52.482727 506.747589,52.685989 
	C511.037384,52.792866 512.659058,51.209492 512.695862,46.869740 
	C512.799561,34.616455 512.934937,34.614471 525.431580,34.619976 
	C531.929382,34.622837 538.428284,34.715591 544.924438,34.616325 
	C548.093201,34.567898 549.397278,35.833122 549.387085,39.043354 
	C549.307434,64.034340 549.485474,89.027290 549.236450,114.016167 
	C549.072754,130.435349 543.340027,145.129013 531.896851,156.762497 
	C521.099182,167.739777 507.940552,175.231628 491.895538,175.342606 
	C465.738892,175.523529 439.579559,175.469360 413.422272,175.336655 
	C400.645569,175.271835 389.523529,170.357407 379.711914,162.464462 
	C365.296021,150.867569 357.455994,136.056335 356.394012,117.247589 
	C354.918396,91.113594 356.115509,64.992699 355.646118,38.872200 
	C355.593903,35.966747 356.771240,34.605621 359.776215,34.628532 
	C369.105743,34.699669 378.436493,34.701569 387.766022,34.632240 
	C390.903198,34.608925 392.389557,35.933514 392.334686,39.092930 
	C392.285492,41.923904 392.460968,44.760860 392.353973,47.588234 
	C392.214905,51.261555 394.002258,52.663944 397.511169,52.638393 
	C405.841217,52.577740 414.174744,52.760162 422.501343,52.583355 
	C426.172241,52.505405 427.718689,53.819809 427.396118,57.503651 
	C427.222443,59.487442 427.061829,61.558178 427.427002,63.489136 
	C429.465149,74.265938 424.360077,81.623276 417.522064,89.492538 
	C409.211426,99.056496 407.477722,111.380295 410.658325,123.814278 
	C417.037842,148.753983 440.567322,162.451233 465.363892,154.869812 
	C481.973328,149.791580 492.396088,137.728806 494.790955,119.554901 
	C496.858612,103.863899 491.436676,91.414658 479.749756,80.805626 
z"/>
<path fill="#000000" opacity="1.000000" stroke="none" 
	d="
M493.209015,287.889618 
	C483.898163,308.256134 464.493927,318.568542 443.510254,314.303986 
	C425.213409,310.585480 413.508087,296.589722 410.176544,282.437988 
	C409.959564,281.516357 410.148254,280.499207 410.148254,279.072876 
	C438.434387,279.072876 466.592682,279.072876 494.719757,279.072876 
	C495.782867,282.394440 494.286804,284.913330 493.209015,287.889618 
z"/>
<path fill="#000000" opacity="1.000000" stroke="none" 
	d="
M455.999756,263.398438 
	C442.185974,263.395874 428.872131,263.422791 415.558533,263.376648 
	C409.465820,263.355560 409.026428,262.720154 410.713470,257.105927 
	C417.186584,235.564789 441.616211,222.497437 463.365234,228.422379 
	C479.757141,232.887894 489.855774,243.291794 494.848114,259.172546 
	C495.204010,260.304688 495.358795,261.446381 494.316895,263.398102 
	C482.021088,263.398102 469.260406,263.398102 455.999756,263.398438 
z"/>
<path fill="#000000" opacity="1.000000" stroke="none" 
	d="
M470.518066,447.529785 
	C455.832794,460.107391 440.156616,455.402802 429.890076,442.558014 
	C423.850647,435.002014 425.430481,418.031158 432.129120,410.952362 
	C442.965912,399.500641 454.638672,400.221008 462.861847,403.694275 
	C479.833099,410.862366 485.405365,434.526001 470.518066,447.529785 
z"/>
<path fill="#000000" opacity="1.000000" stroke="none" 
	d="
M475.064758,128.786392 
	C467.372345,137.776596 458.133392,142.686432 446.642761,139.770782 
	C428.255219,135.105103 421.472839,118.788704 428.622833,102.595665 
	C437.090759,83.417816 461.064850,84.027824 471.520721,95.484818 
	C480.429535,105.246590 481.096954,118.192612 475.064758,128.786392 
z"/>
<path fill="#000000" opacity="1.000000" stroke="none" 
	d="
M494.745850,17.957935 
	C497.558624,23.351488 496.250702,28.848759 496.090973,34.216442 
	C496.005981,37.073528 493.137604,36.341736 491.299225,36.352325 
	C479.325897,36.421307 467.352020,36.388992 455.378296,36.389038 
	C441.575256,36.389095 427.770691,36.272949 413.970154,36.458359 
	C409.836884,36.513889 408.562073,35.055267 408.546326,30.975653 
	C408.494781,17.616337 408.354065,17.597971 421.452911,17.624653 
	C445.730194,17.674107 470.007446,17.748058 494.745850,17.957935 
z"/>
<path fill="#000000" opacity="1.000000" stroke="none" 
	d="
M408.945465,508.235596 
	C410.529572,506.138611 412.489990,506.656708 414.247162,506.654022 
	C439.574310,506.615234 464.902435,506.739990 490.227997,506.535461 
	C495.098572,506.496155 496.578003,508.132080 496.442841,512.853943 
	C496.050964,526.546265 498.012115,524.267944 485.188751,524.347595 
	C461.695312,524.493591 438.199280,524.277283 414.706909,524.492188 
	C409.843231,524.536743 408.071075,522.943237 408.573273,518.183228 
	C408.904022,515.048401 408.743378,511.861786 408.945465,508.235596 
z"/>
<path fill="#000000" opacity="1.000000" stroke="none" 
	d="
M399.959106,301.121216 
	C403.179321,305.722412 406.191864,310.022186 409.294189,314.450104 
	C381.621796,319.369873 353.603027,302.253601 345.125671,279.657440 
	C346.400391,278.186096 348.174103,278.663177 349.742737,278.657074 
	C362.215271,278.608521 374.689728,278.744141 387.160004,278.569489 
	C391.307556,278.511414 392.768524,280.035553 393.568115,284.160461 
	C394.690857,289.952271 396.644348,295.655731 399.959106,301.121216 
z"/>
<path fill="#000000" opacity="1.000000" stroke="none" 
	d="
M462.358215,477.094360 
	C462.126282,492.577942 464.488617,490.213715 449.470276,490.361450 
	C442.686951,490.428192 442.685852,490.315704 442.654877,483.394592 
	C442.597809,470.648743 442.599854,470.799316 455.546753,470.623230 
	C460.031189,470.562256 463.187531,471.065704 462.358215,477.094360 
z"/>
<path fill="#000000" opacity="1.000000" stroke="none" 
	d="
M457.850342,52.645992 
	C458.498779,52.665165 458.689178,52.623222 458.826385,52.690174 
	C466.227356,56.301697 461.072266,62.795227 462.136719,67.850082 
	C462.894684,71.449509 459.571930,71.329033 457.046234,71.346542 
	C456.383026,71.351143 455.713043,71.412064 455.057648,71.341110 
	C451.169678,70.920143 445.781586,73.252670 443.700989,70.157837 
	C440.917603,66.017548 442.770264,60.208988 442.819855,55.117104 
	C442.842072,52.834175 444.723572,52.706276 446.425049,52.683331 
	C450.072083,52.634151 453.719940,52.647781 457.850342,52.645992 
z"/>
<path fill="#000000" opacity="1.000000" stroke="none" 
	d="
M306.548889,926.666992 
	C299.108246,931.367004 292.112213,936.119263 284.160583,939.168457 
	C280.576050,940.543030 276.954559,941.822510 273.057220,941.042175 
	C261.506775,938.729736 257.889526,931.299438 263.096313,919.290405 
	C266.311340,911.875183 269.158417,904.206726 274.161133,897.638489 
	C275.594574,895.756531 276.921051,894.648254 279.404175,894.620911 
	C298.187317,894.414368 316.789337,892.183044 335.316132,889.274780 
	C337.029449,889.005798 338.588867,889.170044 341.306671,889.375488 
	C332.713623,905.058838 320.091553,916.042969 306.548889,926.666992 
z"/>
<path fill="#000000" opacity="1.000000" stroke="none" 
	d="
M299.040161,878.436768 
	C297.378296,878.019653 295.956085,877.985962 295.070953,875.933472 
	C303.946686,867.133484 313.671936,858.712463 326.807190,858.061035 
	C337.163635,857.547363 347.139465,862.770935 346.427307,874.837708 
	C346.245819,877.912903 345.227081,879.330872 342.174347,879.693237 
	C332.213043,880.875793 322.222900,880.764404 312.289032,879.877625 
	C308.017090,879.496216 303.599304,880.052612 299.040161,878.436768 
z"/>
<path fill="#000000" opacity="1.000000" stroke="none" 
	d="
M390.636475,912.923096 
	C392.937531,908.445190 395.194092,904.368286 397.186890,900.166199 
	C398.910767,896.531311 401.230377,894.686035 405.594879,894.600464 
	C422.006317,894.278564 438.338287,892.874329 454.527252,889.968628 
	C458.057587,889.335022 461.715485,889.411987 465.687561,889.135803 
	C464.686707,893.413147 461.930328,896.125000 459.754272,899.145691 
	C451.523834,910.571289 440.817993,919.373291 429.621735,927.701843 
	C423.752228,932.067993 417.434662,935.666504 410.876526,938.709534 
	C403.998993,941.900818 396.903320,942.385193 390.020874,937.865417 
	C386.962189,935.856812 386.319244,933.437927 386.259003,930.012817 
	C386.152618,923.968689 388.466156,918.692688 390.636475,912.923096 
z"/>
<path fill="#000000" opacity="1.000000" stroke="none" 
	d="
M433.897644,879.810059 
	C428.854889,879.110962 423.983032,879.439026 418.877014,876.271179 
	C427.178406,869.725647 434.166260,862.801941 443.862823,859.549927 
	C450.551666,857.306641 456.817200,858.047913 463.193146,860.637451 
	C469.051666,863.016907 473.344696,871.749084 471.168915,877.579773 
	C470.168793,880.259888 467.654083,879.659058 465.670959,879.837830 
	C455.218719,880.779663 444.752258,880.467590 433.897644,879.810059 
z"/>
<path fill="#000000" opacity="1.000000" stroke="none" 
	d="
M618.276917,214.410156 
	C612.824341,228.311737 600.630981,230.471008 590.867798,224.843796 
	C584.418030,221.126404 582.005737,215.012238 582.853333,207.895767 
	C583.671692,201.024048 587.509277,196.192795 594.104248,193.437119 
	C605.091980,188.845963 621.099426,196.756454 618.276917,214.410156 
z"/>
<path fill="#000000" opacity="1.000000" stroke="none" 
	d="
M303.583649,118.007339 
	C304.213959,122.028214 305.815582,125.847313 302.237854,128.975296 
	C297.409058,133.197098 293.485474,133.215912 289.175446,128.912003 
	C286.103333,125.844261 285.788239,120.012383 288.513245,116.655540 
	C291.506958,112.967667 296.968292,112.670197 301.507996,115.981110 
	C302.172852,116.465996 302.730255,117.098175 303.583649,118.007339 
z"/>
<path fill="#000000" opacity="1.000000" stroke="none" 
	d="
M609.185852,454.865784 
	C601.727722,452.989746 598.725830,448.081177 600.993225,441.983612 
	C602.555908,437.781525 608.670471,435.528198 613.228149,437.538574 
	C617.046387,439.222809 618.640137,442.402740 618.258301,446.353699 
	C617.763123,451.477661 614.555420,454.208954 609.185852,454.865784 
z"/>
</svg>